<?xml version="1.0" encoding="UTF-8"?>
<svg xmlns="http://www.w3.org/2000/svg" xmlns:xlink="http://www.w3.org/1999/xlink" width="50px" height="50px" viewBox="0 0 50 50" version="1.1">
<g id="surface1">
<path style=" stroke:none;fill-rule:nonzero;fill:rgb(100%,75.686275%,69.803922%);fill-opacity:0.301961;" d="M 9.367188 22.769531 C 9.367188 20.914062 9.785156 19.242188 10.621094 17.757812 C 11.460938 16.273438 12.605469 15.109375 14.050781 14.273438 C 15.5 13.433594 17.109375 13.015625 18.875 13.015625 C 20.949219 13.015625 22.761719 13.515625 24.3125 14.519531 C 25.859375 15.519531 26.988281 16.941406 27.699219 18.78125 L 24.722656 18.78125 C 24.191406 17.632812 23.429688 16.75 22.4375 16.132812 C 21.445312 15.511719 20.257812 15.203125 18.875 15.203125 C 17.546875 15.203125 16.351562 15.511719 15.296875 16.132812 C 14.238281 16.75 13.410156 17.628906 12.808594 18.769531 C 12.207031 19.90625 11.90625 21.242188 11.90625 22.769531 C 11.90625 24.28125 12.207031 25.605469 12.808594 26.746094 C 13.410156 27.882812 14.238281 28.765625 15.296875 29.382812 C 16.351562 30.003906 17.546875 30.3125 18.875 30.3125 C 20.257812 30.3125 21.445312 30.007812 22.4375 29.398438 C 23.429688 28.785156 24.191406 27.90625 24.722656 26.761719 L 27.699219 26.761719 C 26.988281 28.582031 25.859375 29.988281 24.3125 30.980469 C 22.761719 31.972656 20.949219 32.46875 18.875 32.46875 C 17.109375 32.46875 15.5 32.054688 14.050781 31.226562 C 12.605469 30.398438 11.460938 29.246094 10.621094 27.769531 C 9.785156 26.296875 9.367188 24.628906 9.367188 22.769531 Z M 9.367188 22.769531 "/>
<path style=" stroke:none;fill-rule:nonzero;fill:rgb(100%,75.686275%,69.803922%);fill-opacity:0.501961;" d="M 10.089844 23.078125 C 10.089844 21.21875 10.507812 19.546875 11.34375 18.0625 C 12.183594 16.578125 13.328125 15.417969 14.773438 14.578125 C 16.222656 13.742188 17.832031 13.324219 19.597656 13.324219 C 21.671875 13.324219 23.484375 13.824219 25.035156 14.824219 C 26.582031 15.828125 27.710938 17.246094 28.421875 19.085938 L 25.445312 19.085938 C 24.917969 17.941406 24.15625 17.058594 23.160156 16.4375 C 22.171875 15.820312 20.980469 15.507812 19.597656 15.507812 C 18.269531 15.507812 17.074219 15.820312 16.019531 16.4375 C 14.960938 17.058594 14.132812 17.9375 13.53125 19.074219 C 12.929688 20.210938 12.628906 21.546875 12.628906 23.078125 C 12.628906 24.589844 12.929688 25.914062 13.53125 27.050781 C 14.132812 28.191406 14.960938 29.070312 16.019531 29.691406 C 17.074219 30.308594 18.269531 30.617188 19.597656 30.617188 C 20.980469 30.617188 22.171875 30.3125 23.160156 29.703125 C 24.15625 29.09375 24.917969 28.214844 25.445312 27.066406 L 28.421875 27.066406 C 27.710938 28.886719 26.582031 30.296875 25.035156 31.289062 C 23.484375 32.28125 21.671875 32.777344 19.597656 32.777344 C 17.832031 32.777344 16.222656 32.363281 14.773438 31.535156 C 13.328125 30.703125 12.183594 29.550781 11.34375 28.078125 C 10.507812 26.601562 10.089844 24.9375 10.089844 23.078125 Z M 10.089844 23.078125 "/>
<path style=" stroke:none;fill-rule:nonzero;fill:rgb(0%,59.215686%,69.803922%);fill-opacity:1;" d="M 10.8125 23.382812 C 10.8125 21.527344 11.230469 19.855469 12.070312 18.371094 C 12.90625 16.886719 14.050781 15.722656 15.496094 14.886719 C 16.945312 14.050781 18.554688 13.628906 20.320312 13.628906 C 22.398438 13.628906 24.210938 14.132812 25.757812 15.132812 C 27.304688 16.132812 28.4375 17.554688 29.144531 19.394531 L 26.167969 19.394531 C 25.640625 18.246094 24.878906 17.363281 23.886719 16.746094 C 22.894531 16.125 21.703125 15.816406 20.320312 15.816406 C 18.992188 15.816406 17.796875 16.125 16.742188 16.746094 C 15.683594 17.363281 14.855469 18.242188 14.253906 19.382812 C 13.652344 20.519531 13.355469 21.855469 13.355469 23.382812 C 13.355469 24.894531 13.652344 26.222656 14.253906 27.359375 C 14.855469 28.5 15.683594 29.378906 16.742188 29.996094 C 17.796875 30.617188 18.992188 30.925781 20.320312 30.925781 C 21.703125 30.925781 22.894531 30.621094 23.886719 30.011719 C 24.878906 29.402344 25.640625 28.519531 26.167969 27.375 L 29.144531 27.375 C 28.4375 29.195312 27.304688 30.601562 25.757812 31.59375 C 24.210938 32.589844 22.398438 33.085938 20.320312 33.085938 C 18.554688 33.085938 16.945312 32.667969 15.496094 31.839844 C 14.050781 31.011719 12.90625 29.859375 12.070312 28.382812 C 11.230469 26.910156 10.8125 25.242188 10.8125 23.382812 Z M 10.8125 23.382812 "/>
<path style=" stroke:none;fill-rule:nonzero;fill:rgb(0%,59.215686%,69.803922%);fill-opacity:1;" d="M 14.667969 23.335938 C 14.667969 22.863281 14.773438 22.4375 14.984375 22.0625 C 15.199219 21.683594 15.488281 21.390625 15.855469 21.179688 C 16.222656 20.964844 16.628906 20.855469 17.078125 20.855469 C 17.605469 20.855469 18.066406 20.984375 18.457031 21.242188 C 18.851562 21.496094 19.136719 21.855469 19.316406 22.320312 L 18.5625 22.320312 C 18.429688 22.03125 18.234375 21.804688 17.984375 21.648438 C 17.730469 21.492188 17.429688 21.414062 17.078125 21.414062 C 16.742188 21.414062 16.4375 21.492188 16.171875 21.648438 C 15.902344 21.804688 15.691406 22.027344 15.539062 22.316406 C 15.386719 22.605469 15.3125 22.945312 15.3125 23.335938 C 15.3125 23.71875 15.386719 24.054688 15.539062 24.34375 C 15.691406 24.632812 15.902344 24.855469 16.171875 25.011719 C 16.4375 25.167969 16.742188 25.246094 17.078125 25.246094 C 17.429688 25.246094 17.730469 25.167969 17.984375 25.015625 C 18.234375 24.859375 18.429688 24.636719 18.5625 24.34375 L 19.316406 24.34375 C 19.136719 24.808594 18.851562 25.164062 18.457031 25.417969 C 18.066406 25.667969 17.605469 25.792969 17.078125 25.792969 C 16.628906 25.792969 16.222656 25.691406 15.855469 25.480469 C 15.488281 25.269531 15.199219 24.976562 14.984375 24.601562 C 14.773438 24.226562 14.667969 23.804688 14.667969 23.335938 Z M 14.667969 23.335938 "/>
<path style=" stroke:none;fill-rule:nonzero;fill:rgb(0%,59.215686%,69.803922%);fill-opacity:1;" d="M 22.445312 25.800781 C 21.996094 25.800781 21.585938 25.695312 21.21875 25.484375 C 20.847656 25.273438 20.554688 24.980469 20.339844 24.605469 C 20.125 24.230469 20.019531 23.804688 20.019531 23.335938 C 20.019531 22.863281 20.125 22.4375 20.339844 22.0625 C 20.554688 21.683594 20.847656 21.390625 21.21875 21.183594 C 21.585938 20.972656 21.996094 20.867188 22.445312 20.867188 C 22.898438 20.867188 23.308594 20.972656 23.679688 21.183594 C 24.050781 21.390625 24.339844 21.683594 24.554688 22.058594 C 24.765625 22.433594 24.871094 22.859375 24.871094 23.335938 C 24.871094 23.808594 24.765625 24.234375 24.554688 24.609375 C 24.339844 24.984375 24.050781 25.273438 23.679688 25.484375 C 23.308594 25.695312 22.898438 25.800781 22.445312 25.800781 Z M 22.445312 25.253906 C 22.78125 25.253906 23.085938 25.175781 23.355469 25.015625 C 23.625 24.859375 23.839844 24.636719 23.992188 24.347656 C 24.148438 24.054688 24.226562 23.71875 24.226562 23.335938 C 24.226562 22.945312 24.148438 22.605469 23.992188 22.316406 C 23.839844 22.027344 23.628906 21.804688 23.359375 21.648438 C 23.089844 21.492188 22.785156 21.414062 22.445312 21.414062 C 22.105469 21.414062 21.796875 21.492188 21.53125 21.648438 C 21.261719 21.804688 21.050781 22.027344 20.894531 22.316406 C 20.742188 22.605469 20.664062 22.945312 20.664062 23.335938 C 20.664062 23.71875 20.742188 24.054688 20.894531 24.347656 C 21.050781 24.636719 21.261719 24.859375 21.53125 25.015625 C 21.804688 25.175781 22.109375 25.253906 22.445312 25.253906 Z M 22.445312 25.253906 "/>
<path style=" stroke:none;fill-rule:nonzero;fill:rgb(0%,59.215686%,69.803922%);fill-opacity:1;" d="M 27.894531 25.800781 C 27.445312 25.800781 27.035156 25.695312 26.667969 25.484375 C 26.296875 25.273438 26.003906 24.980469 25.789062 24.605469 C 25.574219 24.230469 25.46875 23.804688 25.46875 23.335938 C 25.46875 22.863281 25.574219 22.4375 25.789062 22.0625 C 26.003906 21.683594 26.296875 21.390625 26.667969 21.183594 C 27.035156 20.972656 27.445312 20.867188 27.894531 20.867188 C 28.347656 20.867188 28.757812 20.972656 29.128906 21.183594 C 29.5 21.390625 29.789062 21.683594 30.003906 22.058594 C 30.214844 22.433594 30.320312 22.859375 30.320312 23.335938 C 30.320312 23.808594 30.214844 24.234375 30.003906 24.609375 C 29.789062 24.984375 29.5 25.273438 29.128906 25.484375 C 28.757812 25.695312 28.347656 25.800781 27.894531 25.800781 Z M 27.894531 25.253906 C 28.230469 25.253906 28.535156 25.175781 28.804688 25.015625 C 29.074219 24.859375 29.289062 24.636719 29.441406 24.347656 C 29.597656 24.054688 29.675781 23.71875 29.675781 23.335938 C 29.675781 22.945312 29.597656 22.605469 29.441406 22.316406 C 29.289062 22.027344 29.078125 21.804688 28.808594 21.648438 C 28.542969 21.492188 28.238281 21.414062 27.894531 21.414062 C 27.554688 21.414062 27.246094 21.492188 26.980469 21.648438 C 26.710938 21.804688 26.5 22.027344 26.34375 22.316406 C 26.191406 22.605469 26.113281 22.945312 26.113281 23.335938 C 26.113281 23.71875 26.191406 24.054688 26.34375 24.347656 C 26.5 24.636719 26.710938 24.859375 26.980469 25.015625 C 27.253906 25.175781 27.558594 25.253906 27.894531 25.253906 Z M 27.894531 25.253906 "/>
<path style=" stroke:none;fill-rule:nonzero;fill:rgb(0%,59.215686%,69.803922%);fill-opacity:1;" d="M 33.773438 25.753906 L 31.785156 23.546875 L 31.785156 25.753906 L 31.152344 25.753906 L 31.152344 20.917969 L 31.785156 20.917969 L 31.785156 23.160156 L 33.78125 20.917969 L 34.578125 20.917969 L 32.386719 23.339844 L 34.597656 25.753906 Z M 33.773438 25.753906 "/>
<path style=" stroke:none;fill-rule:nonzero;fill:rgb(0%,59.215686%,69.803922%);fill-opacity:1;" d="M 35.9375 25.242188 L 37.628906 25.242188 L 37.628906 25.753906 L 35.304688 25.753906 L 35.304688 20.917969 L 35.9375 20.917969 Z M 35.9375 25.242188 "/>
<path style=" stroke:none;fill-rule:nonzero;fill:rgb(0%,59.215686%,69.803922%);fill-opacity:1;" d="M 41.683594 20.917969 L 40.109375 23.929688 L 40.109375 25.753906 L 39.480469 25.753906 L 39.480469 23.929688 L 37.898438 20.917969 L 38.597656 20.917969 L 39.792969 23.367188 L 40.984375 20.917969 Z M 41.683594 20.917969 "/>
</g>
</svg>
